<?xml version="1.0" encoding="utf-8"?>
<!-- Generator: Adobe Illustrator 27.5.0, SVG Export Plug-In . SVG Version: 6.00 Build 0)  -->
<svg version="1.1" xmlns="http://www.w3.org/2000/svg" xmlns:xlink="http://www.w3.org/1999/xlink" x="0px" y="0px"
	 viewBox="0 0 500 500" style="enable-background:new 0 0 500 500;" xml:space="preserve">
<g id="BACKGROUND">
	<rect style="fill:#FFFEFA;" width="500" height="500"/>
</g>
<g id="OBJECTS">
	<g>
		<g>
			<path style="fill:#FFC9E2;" d="M75.713,64.811c0,4.785-2.147,8.664-9.044,8.664c-6.9,0-9.047-3.878-9.047-8.664
				c0-4.785,2.146-8.663,9.047-8.663C73.566,56.147,75.713,60.026,75.713,64.811z"/>
			<path style="fill:#FFC9E2;" d="M137.853,64.811c0,4.785-2.146,8.664-9.046,8.664c-6.897,0-9.045-3.878-9.045-8.664
				c0-4.785,2.148-8.663,9.045-8.663C135.707,56.147,137.853,60.026,137.853,64.811z"/>
		</g>
		<g>
			<g>
				<path style="fill:#152F47;" d="M81.525,53.873c0,5.074-4.115,9.189-9.189,9.189c-5.075,0-9.188-4.115-9.188-9.189
					c0-5.075,4.113-9.189,9.188-9.189C77.41,44.684,81.525,48.797,81.525,53.873z"/>
				<g>
					<path style="fill:#FFFFFF;" d="M77.456,49.671c0,0.942-0.764,1.708-1.706,1.708c-0.943,0-1.706-0.765-1.706-1.708
						c0-0.942,0.763-1.707,1.706-1.707C76.692,47.965,77.456,48.729,77.456,49.671z"/>
					<path style="fill:#FFFFFF;" d="M73.352,52.511c0,1.912-1.549,3.462-3.461,3.462c-1.913,0-3.462-1.55-3.462-3.462
						c0-1.912,1.549-3.462,3.462-3.462C71.803,49.049,73.352,50.599,73.352,52.511z"/>
					<path style="fill:#FFFFFF;" d="M76.668,53.873c0,0.507-0.411,0.918-0.919,0.918s-0.919-0.411-0.919-0.918
						c0-0.508,0.411-0.919,0.919-0.919S76.668,53.365,76.668,53.873z"/>
				</g>
			</g>
			<g>
				
					<ellipse transform="matrix(0.0227 -0.9997 0.9997 0.0227 66.4828 175.756)" style="fill:#152F47;" cx="123.139" cy="53.873" rx="9.189" ry="9.189"/>
				<g>
					<path style="fill:#FFFFFF;" d="M128.258,49.671c0,0.942-0.765,1.708-1.706,1.708c-0.942,0-1.706-0.765-1.706-1.708
						c0-0.942,0.764-1.707,1.706-1.707C127.494,47.965,128.258,48.729,128.258,49.671z"/>
					<path style="fill:#FFFFFF;" d="M124.157,52.511c0,1.912-1.551,3.462-3.462,3.462c-1.911,0-3.463-1.55-3.463-3.462
						c0-1.912,1.552-3.462,3.463-3.462C122.606,49.049,124.157,50.599,124.157,52.511z"/>
					<path style="fill:#FFFFFF;" d="M127.471,53.873c0,0.507-0.411,0.918-0.919,0.918c-0.508,0-0.919-0.411-0.919-0.918
						c0-0.508,0.411-0.919,0.919-0.919C127.06,52.954,127.471,53.365,127.471,53.873z"/>
				</g>
			</g>
		</g>
		<g>
			<path style="fill:#152F47;" d="M106.456,64.892c-2.18,1.477-4.551,1.734-6.36-0.416c-0.722-0.858-1.333-1.88-1.699-2.947
				c-0.02-0.056-0.054-0.094-0.082-0.138c-0.006-0.011-0.011-0.021-0.018-0.03c-0.043-0.061-0.091-0.112-0.147-0.152
				c-0.004-0.002-0.008-0.006-0.012-0.008c-0.064-0.042-0.129-0.075-0.202-0.093c-0.011-0.003-0.022-0.005-0.034-0.007
				c-0.055-0.013-0.107-0.02-0.163-0.018c-0.057-0.002-0.108,0.005-0.163,0.018c-0.012,0.001-0.022,0.004-0.034,0.007
				c-0.073,0.019-0.138,0.051-0.202,0.093c-0.003,0.002-0.007,0.005-0.011,0.008c-0.057,0.04-0.105,0.091-0.149,0.152
				c-0.007,0.01-0.011,0.02-0.017,0.03c-0.028,0.045-0.063,0.082-0.081,0.138c-0.365,1.067-0.978,2.088-1.699,2.947
				c-1.812,2.151-4.181,1.894-6.361,0.416c-0.705-0.479-1.363,0.663-0.665,1.138c2.411,1.634,5.034,1.957,7.341,0.003
				c0.844-0.714,1.522-1.699,2.042-2.731c0.519,1.033,1.197,2.017,2.043,2.731c2.307,1.954,4.93,1.63,7.34-0.003
				C107.82,65.555,107.162,64.413,106.456,64.892z"/>
			<g>
				<path style="fill:#FFC9E2;" d="M103.911,57.487c-0.264-3.69-6.191-3.625-6.194-3.625s-5.931-0.065-6.195,3.625
					c-0.263,3.689,6.189,4.216,6.194,4.217l0,0h0.001l0,0l0,0C97.722,61.703,104.175,61.176,103.911,57.487z"/>
				<path style="fill:#152F47;" d="M104.544,57.355c-0.002-0.017,0.004-0.029,0.001-0.043c-0.865-5.949-14.703-5.394-13.657,0.812
					c0.985,5.84,13.645,5.566,13.682-0.637C104.571,57.436,104.552,57.399,104.544,57.355z M92.233,58.203
					c-1.306-3.808,10.079-5.633,11.013-0.675C103.16,62.11,93.518,61.962,92.233,58.203z"/>
			</g>
		</g>
	</g>
	<g>
		<g>
			<path style="fill:#FFC9E2;" d="M228.07,62.756c0,4.785-2.147,8.664-9.044,8.664c-6.9,0-9.046-3.878-9.046-8.664
				c0-4.785,2.146-8.663,9.046-8.663C225.923,54.093,228.07,57.972,228.07,62.756z"/>
			<path style="fill:#FFC9E2;" d="M290.211,62.756c0,4.785-2.146,8.664-9.047,8.664c-6.898,0-9.045-3.878-9.045-8.664
				c0-4.785,2.147-8.663,9.045-8.663C288.064,54.093,290.211,57.972,290.211,62.756z"/>
		</g>
		<g>
			<g>
				<g>
					<path style="fill:#152F47;" d="M232.882,47.705c-0.146,4.973-2.222,11.935-8.189,12.303c-5.932,0.365-8.059-7.89-8.188-12.303
						c-0.038-1.287-2.038-1.291-2,0c0.182,6.188,3.034,13.862,10.188,14.303c7.123,0.439,10.028-8.829,10.189-14.303
						C234.92,46.414,232.92,46.418,232.882,47.705L232.882,47.705z"/>
				</g>
			</g>
			<g>
				<g>
					<path style="fill:#152F47;" d="M283.685,47.705c-0.146,4.974-2.221,11.935-8.189,12.303c-5.932,0.365-8.059-7.89-8.19-12.303
						c-0.037-1.287-2.037-1.291-2,0c0.182,6.188,3.035,13.862,10.19,14.303c7.125,0.439,10.029-8.829,10.189-14.303
						C285.725,46.414,283.725,46.418,283.685,47.705L283.685,47.705z"/>
				</g>
			</g>
		</g>
		<path style="fill:#152F47;" d="M252.592,59.721c1.295-1.056,2.568-2.448,2.672-4.069c0.098-1.544-0.744-2.885-2.328-3.084
			c-2.642-0.332-5.809,3.324-7.366,5.059c-0.537,0.598,0.345,1.485,0.884,0.884c0.939-1.047,1.968-2.014,3.047-2.915
			c0.875-0.73,1.863-1.412,2.968-1.731c2.02-0.584,1.496,2.14,1.023,3.012c-0.582,1.071-1.671,1.922-2.643,2.604
			c-0.399,0.28-0.431,1.033,0.149,1.142c1.794,0.338,5.093,1.205,5.231,3.402c0.148,2.369-3.094,2.416-4.612,2.145
			c-2.052-0.367-3.882-1.584-5.165-3.192c-0.502-0.63-1.381,0.26-0.884,0.884c2.105,2.64,9.604,6.306,11.587,1.502
			C258.432,62.271,255.273,60.494,252.592,59.721z"/>
	</g>
	<g>
		<g>
			<path style="fill:#FFC9E2;" d="M380.236,64.811c0,4.785-2.146,8.664-9.043,8.664c-6.9,0-9.047-3.878-9.047-8.664
				c0-4.785,2.147-8.663,9.047-8.663C378.09,56.147,380.236,60.026,380.236,64.811z"/>
			<path style="fill:#FFC9E2;" d="M442.377,64.811c0,4.785-2.147,8.664-9.047,8.664c-6.898,0-9.045-3.878-9.045-8.664
				c0-4.785,2.146-8.663,9.045-8.663C440.23,56.147,442.377,60.026,442.377,64.811z"/>
		</g>
		<g>
			<g>
				
					<ellipse transform="matrix(0.0227 -0.9997 0.9997 0.0227 314.4384 429.4107)" style="fill:#152F47;" cx="376.859" cy="53.873" rx="9.189" ry="9.189"/>
				<g>
					<path style="fill:#FFFFFF;" d="M381.978,49.671c0,0.942-0.764,1.708-1.705,1.708c-0.943,0-1.707-0.765-1.707-1.708
						c0-0.942,0.764-1.707,1.707-1.707C381.215,47.965,381.978,48.729,381.978,49.671z"/>
					<path style="fill:#FFFFFF;" d="M377.875,52.511c0,1.912-1.549,3.462-3.461,3.462s-3.461-1.55-3.461-3.462
						c0-1.912,1.549-3.462,3.461-3.462S377.875,50.599,377.875,52.511z"/>
					<path style="fill:#FFFFFF;" d="M381.191,53.873c0,0.507-0.41,0.918-0.918,0.918c-0.508,0-0.92-0.411-0.92-0.918
						c0-0.508,0.412-0.919,0.92-0.919C380.781,52.954,381.191,53.365,381.191,53.873z"/>
				</g>
			</g>
			<g>
				
					<ellipse transform="matrix(0.025 -0.9997 0.9997 0.025 363.1196 480.0549)" style="fill:#152F47;" cx="427.662" cy="53.873" rx="9.189" ry="9.189"/>
				<g>
					<path style="fill:#FFFFFF;" d="M432.781,49.671c0,0.942-0.764,1.708-1.707,1.708c-0.941,0-1.705-0.765-1.705-1.708
						c0-0.942,0.764-1.707,1.705-1.707C432.018,47.965,432.781,48.729,432.781,49.671z"/>
					<path style="fill:#FFFFFF;" d="M428.68,52.511c0,1.912-1.551,3.462-3.463,3.462c-1.91,0-3.463-1.55-3.463-3.462
						c0-1.912,1.553-3.462,3.463-3.462C427.129,49.049,428.68,50.599,428.68,52.511z"/>
					<path style="fill:#FFFFFF;" d="M431.994,53.873c0,0.507-0.412,0.918-0.92,0.918s-0.918-0.411-0.918-0.918
						c0-0.508,0.41-0.919,0.918-0.919S431.994,53.365,431.994,53.873z"/>
				</g>
			</g>
		</g>
		<path style="fill:#152F47;" d="M410.301,56.909h-7.139h-7.137c0,0-2.078-0.221-1.818,2.436c0.26,2.656,3.115,7.537,8.955,7.537
			c5.84,0,8.695-4.88,8.955-7.537C412.377,56.688,410.301,56.909,410.301,56.909z M398.182,63.927
			c0.365-1.602,4.98-2.035,4.98-2.035c-4.047,0-6.164-0.899-7.047-1.414c-0.053-0.219-0.096-0.431-0.115-0.624
			c-0.207-2.125,1.455-1.948,1.455-1.948h5.707h5.707c0,0,1.66-0.177,1.453,1.948c-0.02,0.193-0.061,0.405-0.115,0.623
			c-0.883,0.515-2.998,1.415-7.045,1.415c0,0,4.615,0.433,4.98,2.035c-1.17,1.111-2.816,1.954-4.98,1.954
			C400.996,65.881,399.352,65.039,398.182,63.927z"/>
	</g>
	<g>
		<g>
			<path style="fill:#FFC9E2;" d="M75.712,136.709c0,4.785-2.146,8.664-9.043,8.664c-6.9,0-9.047-3.879-9.047-8.664
				c0-4.785,2.146-8.663,9.047-8.663C73.566,128.046,75.712,131.924,75.712,136.709z"/>
			<path style="fill:#FFC9E2;" d="M137.853,136.709c0,4.785-2.146,8.664-9.046,8.664c-6.898,0-9.045-3.879-9.045-8.664
				c0-4.785,2.146-8.663,9.045-8.663C135.707,128.046,137.853,131.924,137.853,136.709z"/>
		</g>
		<g>
			<g>
				<g>
					<path style="fill:#152F47;" d="M114.951,133.008c0.147-4.973,2.223-11.935,8.189-12.303c5.932-0.365,8.059,7.89,8.188,12.303
						c0.038,1.287,2.038,1.29,2,0c-0.182-6.188-3.034-13.862-10.188-14.303c-7.123-0.439-10.028,8.829-10.189,14.303
						C112.913,134.299,114.913,134.295,114.951,133.008L114.951,133.008z"/>
				</g>
			</g>
			<g>
				<g>
					<path style="fill:#152F47;" d="M64.147,133.008c0.146-4.974,2.222-11.935,8.189-12.303c5.932-0.365,8.06,7.89,8.189,12.303
						c0.038,1.287,2.038,1.29,2,0c-0.182-6.188-3.035-13.862-10.189-14.303c-7.124-0.439-10.028,8.829-10.189,14.303
						C62.109,134.299,64.109,134.295,64.147,133.008L64.147,133.008z"/>
				</g>
			</g>
		</g>
		<path style="fill:#152F47;" d="M105.272,132.784h-7.139h-7.137c0,0-2.078-0.174-1.818,1.918c0.261,2.092,3.115,5.936,8.955,5.936
			c5.84,0,8.695-3.844,8.955-5.936C107.348,132.609,105.272,132.784,105.272,132.784z M93.153,138.311
			c0.365-1.261,4.98-1.602,4.98-1.602c-4.047,0-6.164-0.708-7.046-1.114c-0.054-0.172-0.096-0.339-0.115-0.491
			c-0.207-1.673,1.454-1.534,1.454-1.534h5.707h5.708c0,0,1.66-0.139,1.453,1.534c-0.02,0.152-0.062,0.319-0.115,0.491
			c-0.883,0.406-2.999,1.114-7.046,1.114c0,0,4.616,0.341,4.98,1.603c-1.17,0.875-2.815,1.539-4.98,1.539
			S94.323,139.186,93.153,138.311z"/>
	</g>
	<g>
		<g>
			<path style="fill:#FFC9E2;" d="M228.07,137.763c0,4.785-2.147,8.664-9.044,8.664c-6.9,0-9.047-3.879-9.047-8.664
				c0-4.785,2.146-8.663,9.047-8.663C225.922,129.1,228.07,132.979,228.07,137.763z"/>
			<path style="fill:#FFC9E2;" d="M290.209,137.763c0,4.785-2.145,8.664-9.045,8.664c-6.898,0-9.045-3.879-9.045-8.664
				c0-4.785,2.147-8.663,9.045-8.663C288.064,129.1,290.209,132.979,290.209,137.763z"/>
		</g>
		<g>
			<g>
				<path style="fill:#152F47;" d="M233.881,126.825c0,5.074-4.115,9.189-9.189,9.189c-5.074,0-9.188-4.115-9.188-9.189
					c0-5.075,4.113-9.189,9.188-9.189C229.766,117.636,233.881,121.75,233.881,126.825z"/>
				<g>
					<path style="fill:#FFFFFF;" d="M229.812,122.624c0,0.942-0.764,1.707-1.706,1.707c-0.943,0-1.706-0.765-1.706-1.707
						c0-0.942,0.763-1.706,1.706-1.706C229.048,120.918,229.812,121.682,229.812,122.624z"/>
					<path style="fill:#FFFFFF;" d="M225.709,125.463c0,1.912-1.549,3.462-3.461,3.462c-1.914,0-3.463-1.55-3.463-3.462
						c0-1.912,1.549-3.462,3.463-3.462C224.161,122.002,225.709,123.551,225.709,125.463z"/>
					<path style="fill:#FFFFFF;" d="M229.026,126.825c0,0.507-0.412,0.918-0.92,0.918c-0.508,0-0.919-0.411-0.919-0.918
						c0-0.508,0.411-0.919,0.919-0.919C228.614,125.906,229.026,126.317,229.026,126.825z"/>
				</g>
			</g>
			<g>
				<circle style="fill:#152F47;" cx="275.496" cy="126.825" r="9.189"/>
				<g>
					<path style="fill:#FFFFFF;" d="M280.615,122.624c0,0.942-0.766,1.707-1.707,1.707c-0.941,0-1.705-0.765-1.705-1.707
						c0-0.942,0.764-1.706,1.705-1.706C279.85,120.918,280.615,121.682,280.615,122.624z"/>
					<circle style="fill:#FFFFFF;" cx="273.051" cy="125.463" r="3.462"/>
					<path style="fill:#FFFFFF;" d="M279.828,126.825c0,0.507-0.412,0.918-0.92,0.918c-0.508,0-0.918-0.411-0.918-0.918
						c0-0.508,0.41-0.919,0.918-0.919C279.416,125.906,279.828,126.317,279.828,126.825z"/>
				</g>
			</g>
		</g>
		<g>
			<path style="fill:#152F47;" d="M258.812,131.845c-2.18,1.477-4.551,1.734-6.361-0.416c-0.721-0.858-1.332-1.88-1.699-2.947
				c-0.02-0.056-0.054-0.094-0.082-0.138c-0.006-0.011-0.011-0.021-0.018-0.03c-0.043-0.061-0.091-0.112-0.147-0.152
				c-0.004-0.002-0.007-0.006-0.012-0.008c-0.063-0.042-0.128-0.075-0.202-0.093c-0.011-0.003-0.022-0.005-0.034-0.007
				c-0.054-0.013-0.107-0.02-0.163-0.018c-0.057-0.002-0.108,0.005-0.162,0.018c-0.012,0.001-0.023,0.004-0.035,0.007
				c-0.072,0.018-0.138,0.051-0.202,0.093c-0.003,0.002-0.007,0.005-0.011,0.008c-0.057,0.04-0.105,0.091-0.148,0.152
				c-0.008,0.01-0.012,0.02-0.018,0.03c-0.027,0.044-0.063,0.082-0.081,0.138c-0.364,1.067-0.978,2.088-1.699,2.947
				c-1.811,2.151-4.181,1.894-6.36,0.416c-0.706-0.479-1.364,0.663-0.666,1.138c2.411,1.634,5.034,1.957,7.342,0.003
				c0.844-0.714,1.521-1.699,2.041-2.731c0.52,1.033,1.197,2.017,2.043,2.731c2.307,1.954,4.93,1.63,7.34-0.003
				C260.176,132.508,259.518,131.366,258.812,131.845z"/>
		</g>
	</g>
	<g>
		<g>
			<path style="fill:#FFC9E2;" d="M380.236,136.709c0,4.785-2.146,8.664-9.043,8.664c-6.9,0-9.047-3.879-9.047-8.664
				c0-4.785,2.147-8.663,9.047-8.663C378.09,128.046,380.236,131.924,380.236,136.709z"/>
			<path style="fill:#FFC9E2;" d="M442.377,136.709c0,4.785-2.145,8.664-9.045,8.664c-6.898,0-9.045-3.879-9.045-8.664
				c0-4.785,2.147-8.663,9.045-8.663C440.232,128.046,442.377,131.924,442.377,136.709z"/>
		</g>
		<g>
			<g>
				<g>
					<path style="fill:#152F47;" d="M419.475,133.008c0.147-4.973,2.223-11.935,8.19-12.303c5.932-0.365,8.059,7.89,8.189,12.303
						c0.037,1.287,2.037,1.29,2,0c-0.182-6.188-3.035-13.862-10.189-14.303c-7.123-0.439-10.027,8.829-10.19,14.303
						C417.437,134.299,419.437,134.295,419.475,133.008L419.475,133.008z"/>
				</g>
			</g>
			<g>
				<g>
					<path style="fill:#152F47;" d="M368.672,133.008c0.147-4.974,2.221-11.935,8.189-12.303c5.932-0.365,8.059,7.89,8.19,12.303
						c0.037,1.287,2.037,1.29,2,0c-0.182-6.188-3.035-13.862-10.19-14.303c-7.125-0.439-10.029,8.829-10.189,14.303
						C366.633,134.299,368.633,134.295,368.672,133.008L368.672,133.008z"/>
				</g>
			</g>
		</g>
		<g>
			<g>
				<g>
					<path style="fill:#FFC9E2;" d="M399.014,132.165c0,0-1.006,8.75,3.248,8.75c4.252,0,3.086-8.75,3.086-8.75l-3.145-4.119
						L399.014,132.165z"/>
					<g>
						<path style="fill:#152F47;" d="M398.35,132.553c-0.34,3.062-0.32,8.777,3.912,8.987c4.248,0.211,4.102-6.331,3.75-9.047
							c-0.102-0.788-1.393-1.126-1.289-0.328c0.285,2.193,0.742,7.966-2.461,8.125c-3.189,0.159-2.846-6.116-2.623-8.125
							C399.728,131.364,398.437,131.761,398.35,132.553L398.35,132.553z"/>
					</g>
				</g>
				<g>
					<path style="fill:#152F47;" d="M401.637,134.831c0,2.028,0,4.055,0,6.083c0,0.806,1.25,0.806,1.25,0c0-2.028,0-4.055,0-6.083
						C402.887,134.025,401.637,134.025,401.637,134.831L401.637,134.831z"/>
				</g>
			</g>
			<g>
				<path style="fill:#152F47;" d="M410.978,131.142c-2.18,1.477-4.551,1.734-6.359-0.417c-0.723-0.858-1.334-1.88-1.699-2.947
					c-0.02-0.056-0.055-0.094-0.082-0.138c-0.006-0.011-0.012-0.021-0.018-0.03c-0.043-0.061-0.092-0.112-0.148-0.152
					c-0.004-0.002-0.006-0.006-0.012-0.008c-0.063-0.042-0.127-0.075-0.201-0.093c-0.012-0.003-0.024-0.005-0.035-0.007
					c-0.053-0.013-0.107-0.02-0.162-0.018c-0.057-0.002-0.109,0.005-0.162,0.018c-0.012,0.001-0.023,0.004-0.035,0.007
					c-0.072,0.019-0.139,0.051-0.203,0.093c-0.002,0.002-0.006,0.005-0.01,0.008c-0.057,0.04-0.105,0.091-0.148,0.152
					c-0.008,0.01-0.012,0.02-0.018,0.03c-0.027,0.044-0.063,0.082-0.082,0.138c-0.363,1.067-0.976,2.088-1.699,2.947
					c-1.81,2.151-4.18,1.893-6.359,0.417c-0.707-0.479-1.365,0.663-0.666,1.138c2.41,1.634,5.033,1.957,7.342,0.003
					c0.844-0.714,1.522-1.699,2.041-2.731c0.52,1.033,1.197,2.017,2.043,2.731c2.307,1.954,4.93,1.63,7.34-0.003
					C412.344,131.805,411.685,130.663,410.978,131.142z"/>
			</g>
		</g>
	</g>
	<g>
		<g>
			<g>
				<path style="fill:#FFC9E2;" d="M75.713,211.609c0,4.785-2.147,8.664-9.044,8.664c-6.9,0-9.047-3.879-9.047-8.664
					c0-4.785,2.146-8.663,9.047-8.663C73.566,202.946,75.713,206.824,75.713,211.609z"/>
				<path style="fill:#FFC9E2;" d="M137.853,211.609c0,4.785-2.146,8.664-9.046,8.664c-6.897,0-9.045-3.879-9.045-8.664
					c0-4.785,2.148-8.663,9.045-8.663C135.707,202.946,137.853,206.824,137.853,211.609z"/>
			</g>
			<g>
				<g>
					<path style="fill:#152F47;" d="M81.525,200.671c0,5.074-4.115,9.189-9.189,9.189c-5.075,0-9.188-4.115-9.188-9.189
						c0-5.075,4.113-9.189,9.188-9.189C77.41,191.482,81.525,195.596,81.525,200.671z"/>
					<g>
						<path style="fill:#FFFFFF;" d="M77.456,196.47c0,0.942-0.764,1.708-1.706,1.708c-0.943,0-1.706-0.765-1.706-1.708
							c0-0.942,0.763-1.706,1.706-1.706C76.692,194.763,77.456,195.528,77.456,196.47z"/>
						<path style="fill:#FFFFFF;" d="M73.352,199.309c0,1.912-1.549,3.462-3.461,3.462c-1.913,0-3.462-1.55-3.462-3.462
							c0-1.912,1.549-3.462,3.462-3.462C71.803,195.847,73.352,197.397,73.352,199.309z"/>
						<path style="fill:#FFFFFF;" d="M76.668,200.671c0,0.507-0.411,0.919-0.919,0.919s-0.919-0.411-0.919-0.919
							c0-0.508,0.411-0.919,0.919-0.919S76.668,200.163,76.668,200.671z"/>
					</g>
				</g>
				<g>
					<circle style="fill:#152F47;" cx="123.139" cy="200.671" r="9.189"/>
					<g>
						<path style="fill:#FFFFFF;" d="M128.258,196.47c0,0.942-0.765,1.708-1.706,1.708c-0.942,0-1.706-0.765-1.706-1.708
							c0-0.942,0.764-1.706,1.706-1.706C127.494,194.763,128.258,195.528,128.258,196.47z"/>
						<path style="fill:#FFFFFF;" d="M124.157,199.309c0,1.912-1.551,3.462-3.462,3.462c-1.911,0-3.463-1.55-3.463-3.462
							c0-1.912,1.552-3.462,3.463-3.462C122.606,195.847,124.157,197.397,124.157,199.309z"/>
						<path style="fill:#FFFFFF;" d="M127.471,200.671c0,0.507-0.411,0.919-0.919,0.919c-0.508,0-0.919-0.411-0.919-0.919
							c0-0.508,0.411-0.919,0.919-0.919C127.06,199.752,127.471,200.163,127.471,200.671z"/>
					</g>
				</g>
			</g>
		</g>
		<g>
			<path style="fill:#152F47;" d="M86.553,209.315c2.615-6.588,11.972,0.159,16.281,0.783c4.949,0.717,6.348-0.909,7.989-3.745
				c0.404-0.699-0.676-1.328-1.079-0.631c-5.439,9.393-20.197-7.319-24.396,3.26C85.05,209.733,86.259,210.055,86.553,209.315
				L86.553,209.315z"/>
		</g>
	</g>
	<g>
		<g>
			<path style="fill:#FFC9E2;" d="M228.07,209.554c0,4.785-2.147,8.664-9.044,8.664c-6.9,0-9.046-3.878-9.046-8.664
				c0-4.785,2.146-8.663,9.046-8.663C225.923,200.891,228.07,204.77,228.07,209.554z"/>
			<path style="fill:#FFC9E2;" d="M290.211,209.554c0,4.785-2.146,8.664-9.047,8.664c-6.898,0-9.045-3.878-9.045-8.664
				c0-4.785,2.147-8.663,9.045-8.663C288.064,200.891,290.211,204.77,290.211,209.554z"/>
		</g>
		<g>
			<g>
				<g>
					<path style="fill:#152F47;" d="M232.882,194.502c-0.146,4.973-2.222,11.935-8.189,12.303c-5.932,0.365-8.059-7.89-8.188-12.303
						c-0.038-1.287-2.038-1.29-2,0c0.182,6.188,3.034,13.862,10.188,14.303c7.123,0.439,10.028-8.829,10.189-14.303
						C234.92,193.212,232.92,193.216,232.882,194.502L232.882,194.502z"/>
				</g>
			</g>
			<g>
				<g>
					<path style="fill:#152F47;" d="M283.685,194.502c-0.146,4.974-2.221,11.935-8.189,12.303c-5.932,0.365-8.059-7.89-8.19-12.303
						c-0.037-1.287-2.037-1.29-2,0c0.182,6.188,3.035,13.862,10.19,14.303c7.125,0.439,10.029-8.829,10.189-14.303
						C285.725,193.212,283.725,193.216,283.685,194.502L283.685,194.502z"/>
				</g>
			</g>
		</g>
		<g>
			<path style="fill:#152F47;" d="M242.019,204.768c4.684,5.198,11.391,4.911,16.114,0c0.559-0.581-0.324-1.466-0.885-0.884
				c-4.289,4.46-10.162,4.643-14.345,0C242.362,203.284,241.481,204.171,242.019,204.768L242.019,204.768z"/>
		</g>
	</g>
	<g>
		<g>
			<g>
				<path style="fill:#FFC9E2;" d="M380.236,211.609c0,4.785-2.146,8.664-9.043,8.664c-6.9,0-9.047-3.879-9.047-8.664
					c0-4.785,2.147-8.663,9.047-8.663C378.09,202.946,380.236,206.824,380.236,211.609z"/>
				<path style="fill:#FFC9E2;" d="M442.377,211.609c0,4.785-2.147,8.664-9.047,8.664c-6.896,0-9.045-3.879-9.045-8.664
					c0-4.785,2.148-8.663,9.045-8.663C440.23,202.946,442.377,206.824,442.377,211.609z"/>
			</g>
			<g>
				<g>
					<circle style="fill:#152F47;" cx="376.859" cy="200.671" r="9.189"/>
					<g>
						<path style="fill:#FFFFFF;" d="M381.978,196.47c0,0.942-0.764,1.708-1.705,1.708c-0.943,0-1.707-0.765-1.707-1.708
							c0-0.942,0.764-1.706,1.707-1.706C381.215,194.763,381.978,195.528,381.978,196.47z"/>
						<path style="fill:#FFFFFF;" d="M377.875,199.309c0,1.912-1.549,3.462-3.461,3.462s-3.461-1.55-3.461-3.462
							c0-1.912,1.549-3.462,3.461-3.462S377.875,197.397,377.875,199.309z"/>
						<path style="fill:#FFFFFF;" d="M381.191,200.671c0,0.507-0.41,0.919-0.918,0.919c-0.508,0-0.92-0.411-0.92-0.919
							c0-0.508,0.412-0.919,0.92-0.919C380.781,199.752,381.191,200.163,381.191,200.671z"/>
					</g>
				</g>
				<g>
					<circle style="fill:#152F47;" cx="427.662" cy="200.671" r="9.189"/>
					<g>
						<path style="fill:#FFFFFF;" d="M432.781,196.47c0,0.942-0.764,1.708-1.705,1.708c-0.943,0-1.707-0.765-1.707-1.708
							c0-0.942,0.764-1.706,1.707-1.706C432.018,194.763,432.781,195.528,432.781,196.47z"/>
						<path style="fill:#FFFFFF;" d="M428.68,199.309c0,1.912-1.551,3.462-3.461,3.462c-1.912,0-3.463-1.55-3.463-3.462
							c0-1.912,1.551-3.462,3.463-3.462C427.129,195.847,428.68,197.397,428.68,199.309z"/>
						<path style="fill:#FFFFFF;" d="M431.994,200.671c0,0.507-0.41,0.919-0.918,0.919c-0.508,0-0.92-0.411-0.92-0.919
							c0-0.508,0.412-0.919,0.92-0.919C431.584,199.752,431.994,200.163,431.994,200.671z"/>
					</g>
				</g>
			</g>
		</g>
		<path style="fill:#152F47;" d="M415.787,209.026c-1.123-1.172-2.248-2.343-3.369-3.515c-0.217-0.225-0.559-0.197-0.777,0
			c-1.465,1.319-2.926,2.639-4.391,3.959c-0.08-0.079-0.197-0.195-0.375-0.396c-0.522-0.583-1.041-1.167-1.561-1.75
			c-0.758-0.849-1.514-1.697-2.27-2.545c-0.197-0.219-0.58-0.208-0.777,0c-1.473,1.551-2.945,3.103-4.42,4.654
			c-0.076-0.081-0.174-0.186-0.324-0.359c-0.502-0.583-1.006-1.167-1.51-1.75c-0.732-0.849-1.465-1.697-2.197-2.545
			c-0.195-0.226-0.578-0.201-0.777,0c-1.172,1.185-2.342,2.37-3.516,3.554c-0.496,0.504,0.279,1.281,0.779,0.776
			c0.682-0.69,1.365-1.381,2.047-2.072c0.342-0.345,0.684-0.689,1.023-1.034c0.012-0.013,0.016-0.021,0.025-0.033
			c1.346,1.559,2.69,3.117,4.035,4.675c0.191,0.223,0.582,0.206,0.777,0c1.475-1.553,2.949-3.107,4.426-4.66
			c0.078,0.081,0.182,0.187,0.34,0.365c0.52,0.583,1.041,1.167,1.56,1.75c0.756,0.849,1.514,1.697,2.27,2.545
			c0.207,0.232,0.565,0.191,0.777,0c1.473-1.328,2.945-2.655,4.416-3.983c0.35,0.363,0.697,0.727,1.045,1.09
			c0.656,0.683,1.309,1.367,1.965,2.05C415.5,210.315,416.277,209.537,415.787,209.026z"/>
	</g>
	<g>
		<g>
			<path style="fill:#FFC9E2;" d="M75.712,286.434c0,4.785-2.146,8.664-9.043,8.664c-6.9,0-9.047-3.879-9.047-8.664
				c0-4.785,2.146-8.663,9.047-8.663C73.566,277.771,75.712,281.648,75.712,286.434z"/>
			<path style="fill:#FFC9E2;" d="M137.853,286.434c0,4.785-2.146,8.664-9.046,8.664c-6.898,0-9.045-3.879-9.045-8.664
				c0-4.785,2.146-8.663,9.045-8.663C135.707,277.771,137.853,281.648,137.853,286.434z"/>
		</g>
		<g>
			<g>
				<g>
					<path style="fill:#152F47;" d="M114.951,282.732c0.147-4.973,2.223-11.934,8.189-12.303c5.932-0.365,8.059,7.891,8.188,12.303
						c0.038,1.287,2.038,1.291,2,0c-0.182-6.188-3.034-13.861-10.188-14.303c-7.123-0.438-10.028,8.83-10.189,14.303
						C112.913,284.023,114.913,284.02,114.951,282.732L114.951,282.732z"/>
				</g>
			</g>
			<g>
				<g>
					<path style="fill:#152F47;" d="M64.147,282.732c0.146-4.973,2.222-11.934,8.189-12.303c5.932-0.365,8.06,7.891,8.189,12.303
						c0.038,1.287,2.038,1.291,2,0c-0.182-6.188-3.035-13.861-10.189-14.303c-7.124-0.438-10.028,8.829-10.189,14.303
						C62.109,284.023,64.109,284.02,64.147,282.732L64.147,282.732z"/>
				</g>
			</g>
		</g>
		<g>
			<path style="fill:#152F47;" d="M102.155,287.432c0,4.233-2.09,7.666-4.667,7.666c-2.577,0-4.667-3.433-4.667-7.666
				s2.09-7.665,4.667-7.665C100.065,279.767,102.155,283.198,102.155,287.432z"/>
			<path style="fill:#FFC9E2;" d="M97.488,287.721c-1.278,0-2.381,1.244-2.902,3.045c0.521,1.8,1.624,3.045,2.902,3.045
				c1.278,0,2.381-1.245,2.903-3.045C99.869,288.965,98.766,287.721,97.488,287.721z"/>
		</g>
	</g>
	<g>
		<g>
			<g>
				<path style="fill:#FFC9E2;" d="M228.07,287.258c0,4.785-2.147,8.664-9.044,8.664c-6.9,0-9.047-3.879-9.047-8.664
					c0-4.785,2.146-8.663,9.047-8.663C225.922,278.595,228.07,282.473,228.07,287.258z"/>
				<path style="fill:#FFC9E2;" d="M290.209,287.258c0,4.785-2.145,8.664-9.045,8.664c-6.898,0-9.045-3.879-9.045-8.664
					c0-4.785,2.147-8.663,9.045-8.663C288.064,278.595,290.209,282.473,290.209,287.258z"/>
			</g>
			<g>
				<g>
					<path style="fill:#152F47;" d="M233.881,276.32c0,5.074-4.115,9.188-9.189,9.188c-5.074,0-9.188-4.114-9.188-9.188
						c0-5.076,4.113-9.189,9.188-9.189C229.766,267.131,233.881,271.244,233.881,276.32z"/>
					<g>
						<path style="fill:#FFFFFF;" d="M229.812,272.119c0,0.941-0.764,1.707-1.706,1.707c-0.943,0-1.706-0.766-1.706-1.707
							c0-0.942,0.763-1.707,1.706-1.707C229.048,270.412,229.812,271.177,229.812,272.119z"/>
						<path style="fill:#FFFFFF;" d="M225.709,274.958c0,1.911-1.549,3.462-3.461,3.462c-1.914,0-3.463-1.551-3.463-3.462
							c0-1.912,1.549-3.462,3.463-3.462C224.161,271.496,225.709,273.046,225.709,274.958z"/>
						<path style="fill:#FFFFFF;" d="M229.026,276.32c0,0.507-0.412,0.918-0.92,0.918c-0.508,0-0.919-0.411-0.919-0.918
							c0-0.508,0.411-0.92,0.919-0.92C228.614,275.4,229.026,275.813,229.026,276.32z"/>
					</g>
				</g>
				<g>
					<path style="fill:#152F47;" d="M284.685,276.32c0,5.074-4.113,9.188-9.189,9.188c-5.074,0-9.19-4.114-9.19-9.188
						c0-5.076,4.115-9.189,9.19-9.189C280.572,267.131,284.685,271.244,284.685,276.32z"/>
					<g>
						<path style="fill:#FFFFFF;" d="M280.615,272.119c0,0.941-0.766,1.707-1.707,1.707c-0.941,0-1.705-0.766-1.705-1.707
							c0-0.942,0.764-1.707,1.705-1.707C279.85,270.412,280.615,271.177,280.615,272.119z"/>
						<circle style="fill:#FFFFFF;" cx="273.051" cy="274.958" r="3.462"/>
						<path style="fill:#FFFFFF;" d="M279.828,276.32c0,0.507-0.412,0.918-0.92,0.918c-0.508,0-0.918-0.411-0.918-0.918
							c0-0.508,0.41-0.92,0.918-0.92C279.416,275.4,279.828,275.813,279.828,276.32z"/>
					</g>
				</g>
			</g>
		</g>
		<g>
			<path style="fill:#152F47;" d="M257.232,280.014h-7.138h-7.137c0,0-2.078-0.362-1.818,3.997
				c0.261,4.36,3.115,12.371,8.955,12.371c5.839,0,8.695-8.011,8.955-12.371C259.309,279.651,257.232,280.014,257.232,280.014z"/>
			<path style="fill:#FFC9E2;" d="M250.083,289.3c-1.945,0-3.734,0.547-5.178,1.458c1.126,2.097,2.836,3.805,5.188,3.805
				c2.348,0,4.057-1.702,5.184-3.796C253.83,289.851,252.035,289.3,250.083,289.3z"/>
		</g>
	</g>
	<g>
		<g>
			<path style="fill:#152F47;" d="M389.445,279.224c4.436-2.314,7.363,0.741,11.557,1.262c4.906,0.609,10.453-3.74,14.732,0
				c0.604,0.527,1.492-0.353,0.885-0.885c-3.762-3.287-7.469-1.534-11.799-0.409c-3.967,1.03-7.711-2.088-11.686-2.203
				c-1.449-0.041-3.049,0.492-4.32,1.155C388.1,278.517,388.732,279.596,389.445,279.224L389.445,279.224z"/>
		</g>
		<g>
			<path style="fill:#FFC9E2;" d="M380.236,287.737c0,4.785-2.146,8.664-9.043,8.664c-6.9,0-9.047-3.879-9.047-8.664
				c0-4.785,2.147-8.663,9.047-8.663C378.09,279.074,380.236,282.952,380.236,287.737z"/>
			<path style="fill:#FFC9E2;" d="M442.377,287.737c0,4.785-2.147,8.664-9.047,8.664c-6.896,0-9.045-3.879-9.045-8.664
				c0-4.785,2.148-8.663,9.045-8.663C440.23,279.074,442.377,282.952,442.377,287.737z"/>
		</g>
		<g>
			<path style="fill:#152F47;" d="M385.264,272.19c-0.025-0.05-0.051-0.098-0.09-0.137c-1.789-2.272-15.406-4.561-17.266-4.93
				c-0.787-0.156-1.123,1.048-0.332,1.205c2.529,0.503,5.051,1.056,7.563,1.64c1.895,0.441,3.781,0.919,5.652,1.46
				c0.355,0.103,1.445,0.419,2.223,0.722c-4.799,0.625-9.596,1.25-14.395,1.875c-0.787,0.103-0.797,1.354,0,1.25
				c4.764-0.621,9.527-1.241,14.291-1.861c-2.525,1.867-5.844,3.127-8.572,4.465c-2.289,1.121-4.594,2.211-6.912,3.271
				c-0.732,0.335-0.096,1.412,0.631,1.08c3.154-1.441,6.281-2.941,9.381-4.495c1.938-0.971,7.131-2.677,7.904-5.018
				C385.4,272.542,385.365,272.366,385.264,272.19z"/>
			<path style="fill:#152F47;" d="M418.209,272.19c0.023-0.05,0.051-0.098,0.09-0.137c1.787-2.272,15.406-4.561,17.266-4.93
				c0.787-0.156,1.121,1.048,0.332,1.205c-2.531,0.503-5.051,1.056-7.562,1.64c-1.897,0.441-3.783,0.919-5.652,1.46
				c-0.357,0.103-1.447,0.419-2.223,0.722c4.797,0.625,9.596,1.25,14.393,1.875c0.789,0.103,0.799,1.354,0,1.25
				c-4.764-0.621-9.527-1.241-14.291-1.861c2.527,1.867,5.844,3.127,8.572,4.465c2.289,1.121,4.594,2.211,6.912,3.271
				c0.732,0.335,0.098,1.412-0.631,1.08c-3.152-1.441-6.281-2.941-9.381-4.495c-1.935-0.971-7.129-2.677-7.904-5.018
				C418.072,272.542,418.107,272.366,418.209,272.19z"/>
		</g>
	</g>
	<g>
		<g>
			<g>
				<path style="fill:#FFC9E2;" d="M75.713,368.511c0,4.785-2.147,8.664-9.044,8.664c-6.9,0-9.047-3.879-9.047-8.664
					c0-4.785,2.146-8.663,9.047-8.663C73.566,359.848,75.713,363.726,75.713,368.511z"/>
				<path style="fill:#FFC9E2;" d="M137.853,368.511c0,4.785-2.146,8.664-9.046,8.664c-6.897,0-9.045-3.879-9.045-8.664
					c0-4.785,2.148-8.663,9.045-8.663C135.707,359.848,137.853,363.726,137.853,368.511z"/>
			</g>
			<g>
				<g>
					<path style="fill:#152F47;" d="M81.525,357.573c0,5.074-4.115,9.188-9.189,9.188c-5.074,0-9.188-4.114-9.188-9.188
						c0-5.076,4.113-9.189,9.188-9.189C77.41,348.384,81.525,352.497,81.525,357.573z"/>
					<g>
						<path style="fill:#FFFFFF;" d="M77.456,353.372c0,0.941-0.764,1.707-1.706,1.707c-0.943,0-1.706-0.766-1.706-1.707
							c0-0.942,0.763-1.707,1.706-1.707C76.692,351.665,77.456,352.43,77.456,353.372z"/>
						<path style="fill:#FFFFFF;" d="M73.353,356.211c0,1.911-1.549,3.462-3.461,3.462c-1.914,0-3.463-1.551-3.463-3.462
							c0-1.912,1.549-3.462,3.463-3.462C71.804,352.749,73.353,354.299,73.353,356.211z"/>
						<path style="fill:#FFFFFF;" d="M76.669,357.573c0,0.507-0.412,0.918-0.92,0.918s-0.919-0.411-0.919-0.918
							c0-0.508,0.411-0.92,0.919-0.92S76.669,357.065,76.669,357.573z"/>
					</g>
				</g>
				<g>
					<path style="fill:#152F47;" d="M132.329,357.573c0,5.074-4.113,9.188-9.188,9.188c-5.074,0-9.189-4.114-9.189-9.188
						c0-5.076,4.115-9.189,9.189-9.189C128.215,348.384,132.329,352.497,132.329,357.573z"/>
					<g>
						<path style="fill:#FFFFFF;" d="M128.258,353.372c0,0.941-0.765,1.707-1.706,1.707c-0.941,0-1.706-0.766-1.706-1.707
							c0-0.942,0.765-1.707,1.706-1.707C127.494,351.665,128.258,352.43,128.258,353.372z"/>
						<path style="fill:#FFFFFF;" d="M124.158,356.211c0,1.911-1.552,3.462-3.463,3.462c-1.911,0-3.463-1.551-3.463-3.462
							c0-1.912,1.552-3.462,3.463-3.462C122.606,352.749,124.158,354.299,124.158,356.211z"/>
						<path style="fill:#FFFFFF;" d="M127.472,357.573c0,0.507-0.412,0.918-0.92,0.918c-0.508,0-0.918-0.411-0.918-0.918
							c0-0.508,0.41-0.92,0.918-0.92C127.06,356.653,127.472,357.065,127.472,357.573z"/>
					</g>
				</g>
			</g>
		</g>
		<g>
			<g>
				<path style="fill:#152F47;" d="M90.599,377.627h7.139h7.137c0,0,2.078,0.362,1.818-3.997c-0.261-4.36-3.115-12.371-8.955-12.371
					c-5.84,0-8.695,8.011-8.955,12.371C88.523,377.989,90.599,377.627,90.599,377.627z"/>
			</g>
			<path style="fill:#FFC9E2;" d="M97.738,371.364c-2.645,0-5.038,0.795-6.778,2.08c0.042,2.581,1.385,2.352,1.385,2.352h5.394
				h5.392c0,0,1.344,0.229,1.387-2.352C102.776,372.159,100.381,371.364,97.738,371.364z"/>
		</g>
	</g>
	<g>
		<g>
			<path style="fill:#FFC9E2;" d="M228.07,367.686c0,4.785-2.146,8.664-9.043,8.664c-6.9,0-9.046-3.879-9.046-8.664
				c0-4.785,2.146-8.663,9.046-8.663C225.923,359.023,228.07,362.901,228.07,367.686z"/>
			<path style="fill:#FFC9E2;" d="M290.209,367.686c0,4.785-2.145,8.664-9.045,8.664c-6.898,0-9.045-3.879-9.045-8.664
				c0-4.785,2.147-8.663,9.045-8.663C288.064,359.023,290.209,362.901,290.209,367.686z"/>
		</g>
		<g>
			<g>
				<g>
					<path style="fill:#152F47;" d="M267.307,363.985c0.147-4.973,2.223-11.935,8.19-12.303c5.932-0.365,8.059,7.891,8.189,12.303
						c0.037,1.287,2.037,1.291,2,0c-0.182-6.188-3.035-13.861-10.189-14.303c-7.123-0.438-10.027,8.83-10.19,14.303
						C265.269,365.276,267.269,365.272,267.307,363.985L267.307,363.985z"/>
				</g>
			</g>
			<g>
				<g>
					<path style="fill:#152F47;" d="M216.504,363.985c0.146-4.973,2.222-11.935,8.189-12.303c5.932-0.365,8.06,7.891,8.19,12.303
						c0.037,1.287,2.037,1.291,2,0c-0.182-6.188-3.036-13.861-10.19-14.303c-7.124-0.438-10.028,8.829-10.189,14.303
						C214.466,365.276,216.466,365.272,216.504,363.985L216.504,363.985z"/>
				</g>
			</g>
		</g>
		<path style="fill:#152F47;" d="M260.461,367.061c-2.244,0.057-3.832-1.499-3.875-3.733c-0.014-0.805-1.264-0.807-1.25,0
			c0.02,1.063,0.293,2.105,0.858,2.953c-3.678,3.038-8.498,3.52-11.991,0.013c0.571-0.85,0.845-1.898,0.865-2.966
			c0.015-0.807-1.235-0.805-1.25,0c-0.041,2.234-1.63,3.79-3.875,3.733c-0.807-0.021-0.805,1.229,0,1.25
			c0.923,0.023,1.868-0.236,2.69-0.638c0.266-0.13,0.5-0.29,0.719-0.463c3.984,4.009,9.543,3.411,13.688-0.013
			c0.223,0.178,0.461,0.343,0.732,0.476c0.822,0.401,1.768,0.661,2.689,0.638C261.266,368.291,261.268,367.041,260.461,367.061z"/>
	</g>
	<g>
		<g>
			<g>
				<g>
					<path style="fill:#FFC9E2;" d="M380.236,368.74c0,4.785-2.146,8.664-9.043,8.664c-6.9,0-9.047-3.879-9.047-8.664
						c0-4.785,2.147-8.663,9.047-8.663C378.09,360.077,380.236,363.955,380.236,368.74z"/>
					<path style="fill:#FFC9E2;" d="M442.377,368.74c0,4.785-2.147,8.664-9.047,8.664c-6.896,0-9.045-3.879-9.045-8.664
						c0-4.785,2.148-8.663,9.045-8.663C440.23,360.077,442.377,363.955,442.377,368.74z"/>
				</g>
				<g>
					<g>
						<path style="fill:#152F47;" d="M386.049,357.803c0,5.074-4.115,9.189-9.189,9.189c-5.074,0-9.188-4.114-9.188-9.189
							c0-5.076,4.113-9.189,9.188-9.189C381.934,348.613,386.049,352.727,386.049,357.803z"/>
						<g>
							<path style="fill:#FFFFFF;" d="M381.978,353.602c0,0.941-0.764,1.707-1.705,1.707c-0.943,0-1.707-0.766-1.707-1.707
								c0-0.942,0.764-1.707,1.707-1.707C381.215,351.895,381.978,352.659,381.978,353.602z"/>
							<path style="fill:#FFFFFF;" d="M377.877,356.44c0,1.911-1.549,3.462-3.461,3.462c-1.914,0-3.463-1.551-3.463-3.462
								c0-1.912,1.549-3.462,3.463-3.462C376.328,352.978,377.877,354.528,377.877,356.44z"/>
							<path style="fill:#FFFFFF;" d="M381.193,357.803c0,0.507-0.412,0.918-0.92,0.918c-0.508,0-0.92-0.411-0.92-0.918
								c0-0.508,0.412-0.92,0.92-0.92C380.781,356.883,381.193,357.295,381.193,357.803z"/>
						</g>
					</g>
					<g>
						<path style="fill:#152F47;" d="M436.852,357.803c0,5.074-4.113,9.189-9.188,9.189c-5.074,0-9.19-4.114-9.19-9.189
							c0-5.076,4.115-9.189,9.19-9.189C432.738,348.613,436.852,352.727,436.852,357.803z"/>
						<g>
							<path style="fill:#FFFFFF;" d="M432.781,353.602c0,0.941-0.764,1.707-1.705,1.707s-1.707-0.766-1.707-1.707
								c0-0.942,0.766-1.707,1.707-1.707S432.781,352.659,432.781,353.602z"/>
							<path style="fill:#FFFFFF;" d="M428.682,356.44c0,1.911-1.553,3.462-3.463,3.462c-1.912,0-3.463-1.551-3.463-3.462
								c0-1.912,1.551-3.462,3.463-3.462C427.129,352.978,428.682,354.528,428.682,356.44z"/>
							<path style="fill:#FFFFFF;" d="M431.996,357.803c0,0.507-0.412,0.918-0.92,0.918c-0.508,0-0.918-0.411-0.918-0.918
								c0-0.508,0.41-0.92,0.918-0.92C431.584,356.883,431.996,357.295,431.996,357.803z"/>
						</g>
					</g>
				</g>
			</g>
		</g>
		<g>
			<g>
				<path style="fill:#FFC9E2;" d="M401.494,366.991c0,0,2.238-3.844,4.313-4.126c2.074-0.282,4.971,2.665,5.176,3.271
					C410.982,366.137,405.307,367.992,401.494,366.991z"/>
				<g>
					<path style="fill:#152F47;" d="M402.34,367.307c0.406-0.946,0.996-1.825,1.697-2.575c2.16-2.311,4.547-0.724,6.227,1.296
						c0.518,0.62,1.397-0.27,0.885-0.885c-1.732-2.081-4.129-3.766-6.787-2.271c-1.392,0.782-2.48,2.36-3.102,3.804
						C400.945,367.408,402.021,368.045,402.34,367.307L402.34,367.307z"/>
				</g>
			</g>
			<g>
				<path style="fill:#152F47;" d="M391.307,366.344c6.684,2.139,14.402,2.541,20.998,0c0.744-0.286,0.422-1.495-0.332-1.205
					c-6.406,2.467-13.842,2.077-20.334,0C390.869,364.893,390.543,366.1,391.307,366.344L391.307,366.344z"/>
			</g>
		</g>
	</g>
	<g>
		<g>
			<path style="fill:#FFC9E2;" d="M380.236,443.599c0,4.785-2.146,8.664-9.043,8.664c-6.9,0-9.047-3.879-9.047-8.664
				c0-4.785,2.147-8.663,9.047-8.663C378.09,434.935,380.236,438.814,380.236,443.599z"/>
			<path style="fill:#FFC9E2;" d="M442.377,443.599c0,4.785-2.147,8.664-9.047,8.664c-6.896,0-9.045-3.879-9.045-8.664
				c0-4.785,2.148-8.663,9.045-8.663C440.23,434.935,442.377,438.814,442.377,443.599z"/>
		</g>
		<g>
			<path style="fill:#152F47;" d="M394.906,440.604c0.76-1.333,1.805-2.488,2.965-3.482c4.353-3.729,8.869-0.269,11.711,3.482
				c0.48,0.634,1.566,0.012,1.08-0.631c-2.705-3.569-6.457-7.031-11.207-5.245c-2.367,0.891-4.395,3.08-5.629,5.245
				C393.428,440.675,394.508,441.305,394.906,440.604L394.906,440.604z"/>
		</g>
		<g>
			<g>
				<g>
					<path style="fill:#152F47;" d="M384.988,427.232c-0.145,4.974-2.221,11.936-8.19,12.303c-5.932,0.365-8.059-7.889-8.188-12.303
						c-0.039-1.286-2.039-1.29-2,0c0.182,6.189,3.033,13.863,10.188,14.303c7.123,0.439,10.029-8.828,10.19-14.303
						C387.027,425.942,385.027,425.946,384.988,427.232L384.988,427.232z"/>
				</g>
			</g>
			<g>
				<g>
					<path style="fill:#152F47;" d="M435.793,427.232c-0.147,4.975-2.223,11.936-8.19,12.303c-5.932,0.365-8.06-7.889-8.189-12.303
						c-0.039-1.286-2.039-1.29-2,0c0.182,6.188,3.035,13.862,10.189,14.303c7.123,0.439,10.027-8.828,10.19-14.303
						C437.83,425.942,435.83,425.946,435.793,427.232L435.793,427.232z"/>
				</g>
			</g>
		</g>
	</g>
	<g>
		<g>
			<g>
				<ellipse style="fill:#152F47;" cx="250.096" cy="443.359" rx="6.313" ry="10.636"/>
				<path style="fill:#FFC9E2;" d="M250.096,443.828c-1.766,0-3.286,1.722-4.016,4.219c0.73,2.498,2.25,4.221,4.016,4.221
					c1.764,0,3.285-1.723,4.014-4.221C253.381,445.55,251.859,443.828,250.096,443.828z"/>
			</g>
			<g>
				<path style="fill:#FFC9E2;" d="M228.069,445.331c0,4.785-2.146,8.664-9.043,8.664c-6.9,0-9.047-3.879-9.047-8.664
					c0-4.785,2.146-8.663,9.047-8.663C225.922,436.668,228.069,440.546,228.069,445.331z"/>
				<path style="fill:#FFC9E2;" d="M290.209,445.331c0,4.785-2.145,8.664-9.045,8.664c-6.898,0-9.045-3.879-9.045-8.664
					c0-4.785,2.147-8.663,9.045-8.663C288.064,436.668,290.209,440.546,290.209,445.331z"/>
			</g>
		</g>
		<g>
			<g>
				<path style="fill:#152F47;" d="M233.874,433.724c0,5.074-4.115,9.189-9.189,9.189c-5.074,0-9.188-4.114-9.188-9.189
					c0-5.076,4.113-9.189,9.188-9.189C229.759,424.534,233.874,428.647,233.874,433.724z"/>
				<g>
					<path style="fill:#FFFFFF;" d="M229.805,429.522c0,0.941-0.764,1.707-1.706,1.707c-0.943,0-1.706-0.766-1.706-1.707
						c0-0.942,0.763-1.707,1.706-1.707C229.041,427.815,229.805,428.58,229.805,429.522z"/>
					<path style="fill:#FFFFFF;" d="M225.703,432.361c0,1.911-1.549,3.462-3.461,3.462c-1.914,0-3.463-1.551-3.463-3.462
						c0-1.912,1.549-3.462,3.463-3.462C224.154,428.899,225.703,430.449,225.703,432.361z"/>
					<path style="fill:#FFFFFF;" d="M229.019,433.724c0,0.507-0.412,0.918-0.92,0.918c-0.508,0-0.919-0.411-0.919-0.918
						c0-0.508,0.411-0.92,0.919-0.92C228.607,432.804,229.019,433.216,229.019,433.724z"/>
				</g>
			</g>
			<g>
				<path style="fill:#152F47;" d="M284.678,433.724c0,5.074-4.113,9.189-9.188,9.189c-5.074,0-9.189-4.114-9.189-9.189
					c0-5.076,4.115-9.189,9.189-9.189C280.564,424.534,284.678,428.647,284.678,433.724z"/>
				<g>
					<path style="fill:#FFFFFF;" d="M280.607,429.522c0,0.941-0.764,1.707-1.705,1.707c-0.941,0-1.707-0.766-1.707-1.707
						c0-0.942,0.766-1.707,1.707-1.707C279.844,427.815,280.607,428.58,280.607,429.522z"/>
					<circle style="fill:#FFFFFF;" cx="273.045" cy="432.361" r="3.462"/>
					<path style="fill:#FFFFFF;" d="M279.822,433.724c0,0.507-0.412,0.918-0.92,0.918c-0.508,0-0.918-0.411-0.918-0.918
						c0-0.508,0.41-0.92,0.918-0.92C279.41,432.804,279.822,433.216,279.822,433.724z"/>
				</g>
			</g>
		</g>
	</g>
	<g>
		<g>
			<path style="fill:#FFC9E2;" d="M75.712,446.652c0,4.785-2.146,8.664-9.043,8.664c-6.9,0-9.047-3.879-9.047-8.664
				c0-4.785,2.146-8.663,9.047-8.663C73.566,437.989,75.712,441.867,75.712,446.652z"/>
			<path style="fill:#FFC9E2;" d="M137.853,446.652c0,4.785-2.145,8.664-9.045,8.664c-6.898,0-9.045-3.879-9.045-8.664
				c0-4.785,2.147-8.663,9.045-8.663C135.708,437.989,137.853,441.867,137.853,446.652z"/>
		</g>
		<g>
			<path style="fill:#152F47;" d="M64.307,426.752c2.434,0.554,4.854,1.175,7.261,1.835c1.094,0.3,9.232,3.263,9.273,3.21
				c-1.928,2.481-6.59,3.93-9.331,5.22c-2.398,1.129-4.822,2.208-7.263,3.241c-1.037,0.438-0.144,1.945,0.883,1.512
				c3.31-1.4,6.585-2.889,9.814-4.463c1.678-0.818,7.647-2.914,7.647-5.406c0-2.409-5.793-3.576-7.368-4.07
				c-3.436-1.078-6.941-1.968-10.452-2.766C63.673,424.815,63.206,426.502,64.307,426.752L64.307,426.752z"/>
		</g>
		<g>
			<path style="fill:#152F47;" d="M134.121,432.402c0,5.074-4.113,9.188-9.188,9.188c-5.074,0-9.189-4.114-9.189-9.188
				c0-5.076,4.115-9.189,9.189-9.189C130.007,423.213,134.121,427.326,134.121,432.402z"/>
			<g>
				<path style="fill:#FFFFFF;" d="M130.05,428.201c0,0.941-0.765,1.707-1.706,1.707c-0.941,0-1.706-0.766-1.706-1.707
					c0-0.942,0.765-1.707,1.706-1.707C129.286,426.494,130.05,427.259,130.05,428.201z"/>
				<path style="fill:#FFFFFF;" d="M125.95,431.04c0,1.911-1.552,3.462-3.463,3.462s-3.463-1.551-3.463-3.462
					c0-1.912,1.552-3.462,3.463-3.462S125.95,429.128,125.95,431.04z"/>
				<path style="fill:#FFFFFF;" d="M129.264,432.402c0,0.507-0.412,0.918-0.92,0.918c-0.508,0-0.918-0.411-0.918-0.918
					c0-0.508,0.41-0.92,0.918-0.92C128.852,431.482,129.264,431.895,129.264,432.402z"/>
			</g>
		</g>
		<g>
			<path style="fill:#152F47;" d="M99.559,444.185c-4.915,1.616-10.399,0.42-12.794-4.49c-0.354-0.725-1.432-0.091-1.079,0.631
				c2.628,5.388,8.764,6.854,14.205,5.064C100.654,445.14,100.327,443.932,99.559,444.185L99.559,444.185z"/>
		</g>
	</g>
</g>
</svg>
